<svg width="600" height="500" xmlns="http://www.w3.org/2000/svg">
 <defs>
  <linearGradient id="SVGID_17_" x1="0" y1="0.50016" x2="1" y2="0.50016">
   <stop offset="0" stop-color="#C6972F"/>
   <stop offset="0.1231" stop-color="#B37E10"/>
   <stop offset="0.2623" stop-color="#F8DD7B"/>
   <stop offset="0.3672" stop-color="#F8DD7B"/>
   <stop offset="0.3762" stop-color="#F6DA78"/>
   <stop offset="0.4975" stop-color="#DEB953"/>
   <stop offset="0.6188" stop-color="#CB9F36"/>
   <stop offset="0.7385" stop-color="#BE8D21"/>
   <stop offset="0.8561" stop-color="#B68214"/>
   <stop offset="0.9689" stop-color="#B37E10"/>
  </linearGradient>
  <linearGradient id="SVGID_18_" x1="-0.2831" y1="0.49999" x2="0.99998" y2="0.49999">
   <stop offset="0" stop-color="#C6972F"/>
   <stop offset="0.1231" stop-color="#B37E10"/>
   <stop offset="0.2623" stop-color="#F8DD7B"/>
   <stop offset="0.3672" stop-color="#F8DD7B"/>
   <stop offset="0.3762" stop-color="#F6DA78"/>
   <stop offset="0.4975" stop-color="#DEB953"/>
   <stop offset="0.6188" stop-color="#CB9F36"/>
   <stop offset="0.7385" stop-color="#BE8D21"/>
   <stop offset="0.8561" stop-color="#B68214"/>
   <stop offset="0.9689" stop-color="#B37E10"/>
  </linearGradient>
  <linearGradient id="SVGID_19_" x1="-0.00001" y1="0.49998" x2="0.99999" y2="0.49998">
   <stop offset="0" stop-color="#C6972F"/>
   <stop offset="0.1231" stop-color="#B37E10"/>
   <stop offset="0.2623" stop-color="#F8DD7B"/>
   <stop offset="0.3672" stop-color="#F8DD7B"/>
   <stop offset="0.3762" stop-color="#F6DA78"/>
   <stop offset="0.4975" stop-color="#DEB953"/>
   <stop offset="0.6188" stop-color="#CB9F36"/>
   <stop offset="0.7385" stop-color="#BE8D21"/>
   <stop offset="0.8561" stop-color="#B68214"/>
   <stop offset="0.9689" stop-color="#B37E10"/>
  </linearGradient>
 </defs>
 <g>
  <title>background</title>
  <rect fill="none" id="canvas_background" height="502" width="602" y="-1" x="-1"/>
 </g>
 <g>
  <title>Layer 1</title>
  <g stroke="null" id="svg_2">
   <path stroke="null" class="st16" d="m503.07103,307.05932c-56.04263,-16.76388 -126.24235,-26.73229 -202.57348,-26.73229c-76.10681,0 -146.21929,9.91702 -202.19961,26.66806l0,-34.76097c55.99278,-16.64827 126.14265,-26.56529 202.19961,-26.56529c76.16912,0 146.36884,9.91702 202.36162,26.61668l0.21186,34.77382z" fill="url(#SVGID_17_)" id="svg_21"/>
   <path stroke="null" class="st17" d="m462.33202,406.29379c-8.89803,-32.46156 -24.99922,-57.75511 -48.29112,-75.86781c-23.2919,-18.1127 -46.57134,-23.77774 -69.85077,-16.99511c-21.85874,6.37156 -36.41462,20.70757 -43.69256,43.02087c-7.27794,-22.31331 -21.83382,-36.64932 -43.69256,-43.02087c-23.27944,-6.78263 -46.55887,-1.11759 -69.85077,16.99511c-23.2919,18.1127 -39.38063,43.40625 -48.29112,75.86781c-6.40558,23.36667 -6.60498,41.60783 -0.58572,54.71063c6.01925,13.1028 12.67408,20.72042 19.98941,22.85283c4.56117,1.33597 12.71147,-0.52668 24.45089,-5.57511c11.73942,-5.04843 18.09515,-9.3775 19.09213,-12.98719c1.15899,-4.23914 -3.77605,-8.97927 -14.83005,-14.23324c-24.66274,-11.93383 -34.64499,-26.44968 -29.95919,-43.53471c3.65143,-13.33403 14.19447,-23.30244 31.61667,-29.91807c17.42219,-6.61563 35.25564,-7.25793 53.52526,-1.93973c29.21146,8.51682 39.77942,27.50304 31.69144,56.9972c-1.33346,4.85575 -1.96903,8.23421 -1.90672,10.10971c0.06231,1.8755 1.15899,3.1344 3.29003,3.751c5.78247,1.68281 12.46223,2.36364 20.0268,2.02965c2.06873,-0.08992 8.83572,-0.08992 10.90445,0c7.56457,0.33399 14.24432,-0.33399 20.0268,-2.02965c2.13104,-0.6166 3.22772,-1.8755 3.29003,-3.751c0.06231,-1.88835 -0.57326,-5.25397 -1.90672,-10.10971c-8.08798,-29.49416 2.47998,-48.48038 31.69144,-56.9972c18.25716,-5.3182 36.09061,-4.6759 53.52526,1.93973c17.42219,6.61563 27.96523,16.58404 31.61667,29.91807c4.6858,17.08503 -5.29645,31.60088 -29.95919,43.53471c-11.05399,5.25397 -15.98904,9.9941 -14.83005,14.23324c0.98452,3.60969 7.35271,7.93876 19.09213,12.98719c11.73942,5.04843 19.88971,6.91109 24.45089,5.57511c7.30286,-2.13242 13.95769,-9.75003 19.98941,-22.85283c5.98187,-13.1028 5.78247,-31.34396 -0.62311,-54.71063z" fill="url(#SVGID_18_)" id="svg_22"/>
   <path stroke="null" class="st18" d="m467.29198,158.30395c-0.31156,0 -71.58302,-15.42791 -138.60487,-2.6591c0,0 46.53395,-88.35401 -28.17709,-136.29486c-74.94782,62.37963 -28.17709,136.29486 -28.17709,136.29486c-67.02185,-12.76881 -138.29332,12.6532 -138.60487,12.6532c-15.00452,-167.79297 -129.30805,-127.58535 -129.30805,-127.58535c68.16837,55.17308 90.22651,188.11517 93.89041,213.11326c55.99278,-16.64827 126.14265,-26.56529 202.19961,-26.56529c76.05696,0 146.21929,9.91702 202.19961,26.56529c3.66389,-24.9981 25.72203,-157.94018 93.89041,-213.11326c-0.01246,0 -114.316,-50.20173 -129.30805,117.59125zm-257.0334,60.60689l-15.60271,-11.67691l-15.60271,11.67691l5.95694,-18.8963l-15.60271,-11.67691l19.27906,0l5.95694,-18.8963l5.95694,18.8963l19.27906,0l-15.60271,11.67691l5.98187,18.8963zm103.00029,-36.35386l-12.57439,-9.41604l-12.57439,9.41604l4.81042,-15.24807l-12.57439,-9.41604l15.55286,0l4.81042,-15.24807l4.81042,15.24807l15.55286,0l-12.57439,9.41604l4.76057,15.24807zm108.67061,36.35386l-15.60271,-11.67691l-15.60271,11.67691l5.95694,-18.8963l-15.60271,-11.67691l19.27906,0l5.95694,-18.8963l5.95694,18.8963l19.27906,0l-15.60271,11.67691l5.98187,18.8963z" fill="url(#SVGID_19_)" id="svg_23"/>
  </g>
 </g>
</svg>