<svg width="737" height="98" viewBox="0 0 737 98" fill="none" xmlns="http://www.w3.org/2000/svg">
<g filter="url(#filter0_b_1_2)">
<path d="M52.8 5.9C50.1333 5.9 47.5667 6.46666 45.1 7.6C47.9 9.86666 49.3 12.7 49.3 16.1C49.3 19.5 48.4 22.5 46.6 25.1C44.8 27.7 42.5333 29 39.8 29C37.1333 29 34.9667 28.1667 33.3 26.5C31.7 24.7667 30.9 22.4 30.9 19.4C30.9 16.4 31.9 13.4667 33.9 10.6C30.7667 10.8 28.1 12.1333 25.9 14.6C23.7 17 22.6 20.2 22.6 24.2C22.6 28.2 23.4 31.7333 25 34.8C27.2667 34.3333 29.5667 34.1 31.9 34.1C39.4333 34.1 43.2 36.3667 43.2 40.9C43.2 42.8333 42.4333 44.5667 40.9 46.1C39.4333 47.5667 36.9333 48.3 33.4 48.3C29.9333 48.3 26.1333 47.0667 22 44.6C18.1333 48.2667 16.2 52.3333 16.2 56.8C16.2 59.7333 17.1333 62.1667 19 64.1C20.8667 66.0333 23.4 67 26.6 67C29.8 67 33.1333 65.9333 36.6 63.8C40.0667 61.6667 43.1333 59.1 45.8 56.1L49.4 59.3C47.6667 61.8333 45.2667 64.5333 42.2 67.4C36 73.2667 29.1333 76.2 21.6 76.2C16.4667 76.2 11.7333 74.8667 7.4 72.2C5.26667 70.8 3.53333 68.8667 2.2 66.4C0.866667 63.9333 0.2 61.1 0.2 57.9C0.2 49.1 4.93333 42.4667 14.4 38C11.0667 33.8 9.4 29.1333 9.4 24C9.4 17.6667 11.7333 12.7667 16.4 9.3C21.0667 5.76666 26.5333 4 32.8 4C35.3333 4 37.6333 4.3 39.7 4.9C44.1667 1.83333 49.0667 0.299996 54.4 0.299996C56.8667 0.299996 59.1333 0.633329 61.2 1.3C63.3333 1.96666 64.8667 2.76666 65.8 3.69999C65.6667 5.9 64.9333 7.73333 63.6 9.19999L62.9 9.9C60.5667 7.23333 57.2 5.9 52.8 5.9ZM43.4 17.8C43.4 14.9333 42.1333 12.8333 39.6 11.5C37.6 13.6333 36.6 16.1667 36.6 19.1C36.6 22.0333 37.6333 23.5 39.7 23.5C40.7667 23.5 41.6333 22.9667 42.3 21.9C43.0333 20.7667 43.4 19.4 43.4 17.8ZM37.8 41.2C37.8 40.5333 37.4 40 36.6 39.6C35.8667 39.1333 34.7667 38.9 33.3 38.9C31.9 38.9 30.3 39.3 28.5 40.1C30.3667 42.0333 32.3667 43 34.5 43C36.7 43 37.8 42.4 37.8 41.2ZM55.7781 75.3H53.8781C53.8781 72.1667 54.8115 66.1667 56.6781 57.3C58.6115 48.4333 59.5781 43.4 59.5781 42.2C59.5781 40 58.6448 37.6667 56.7781 35.2L55.8781 34L55.9781 32.7C59.5781 31.7 65.3448 31.2 73.2781 31.2C74.2115 32.4667 74.6781 34.5333 74.6781 37.4C80.6781 32.9333 85.4448 30.7 88.9781 30.7C93.4448 30.7 96.0781 33 96.8781 37.6C98.6781 36.1333 101.011 34.6333 103.878 33.1C106.811 31.5 109.411 30.7 111.678 30.7C114.011 30.7 115.945 31.4667 117.478 33C119.011 34.4667 119.778 36.5333 119.778 39.2C119.778 41.8667 119.045 46.2667 117.578 52.4C116.111 58.5333 115.378 62.6667 115.378 64.8C115.378 66.8667 115.678 67.9 116.278 67.9C116.678 67.9 118.045 67.2667 120.378 66L121.478 65.4L123.278 68.9C121.545 70.6333 119.178 72.3 116.178 73.9C113.245 75.4333 110.645 76.2 108.378 76.2C103.378 76.2 100.878 73.3667 100.878 67.7C100.878 65.6333 101.578 61.5 102.978 55.3C104.445 49.0333 105.178 44.9667 105.178 43.1C105.178 41.1667 104.611 40.2 103.478 40.2C101.545 40.2 99.3448 40.9333 96.8781 42.4C96.7448 43.7333 95.8115 48.2667 94.0781 56C92.4115 63.7333 91.5781 69.7333 91.5781 74C89.6448 74.8667 85.1115 75.3 77.9781 75.3C77.8448 74.5667 77.7781 72.8 77.7781 70C77.7781 67.2 78.5448 62.4333 80.0781 55.7C81.6781 48.9667 82.4781 44.7 82.4781 42.9C82.4781 41.1 81.8448 40.2 80.5781 40.2C78.5781 40.2 76.3781 41 73.9781 42.6C73.8448 43.2 73.1781 46.1333 71.9781 51.4C69.5781 61.9333 68.3781 69.4333 68.3781 73.9C66.0448 74.8333 61.8448 75.3 55.7781 75.3ZM123.616 97.4C123.282 96.6 123.116 94.8333 123.116 92.1C123.116 89.3667 124.416 82.0333 127.016 70.1C129.616 58.1 130.916 48.8667 130.916 42.4C130.916 41.1333 130.616 39.8 130.016 38.4C129.416 36.9333 128.782 35.8 128.116 35L127.216 33.9L127.316 32.6C130.449 31.6 135.982 31.1 143.916 31.1C144.649 32.5 145.116 34.4667 145.316 37C150.449 32.8 154.716 30.7 158.116 30.7C161.582 30.7 164.349 32.1333 166.416 35C168.549 37.8667 169.616 42.0667 169.616 47.6C169.616 57.2667 167.849 64.4667 164.316 69.2C160.782 73.8667 156.316 76.2 150.916 76.2C148.116 76.2 145.782 75.8 143.916 75L142.916 74.6L143.616 70.7C144.216 70.8333 144.916 70.9 145.716 70.9C147.449 70.9 148.949 70.1 150.216 68.5C151.549 66.9 152.549 64.8667 153.216 62.4C154.549 57.4667 155.216 52.9 155.216 48.7C155.216 42.7 153.982 39.7 151.516 39.7C149.582 39.7 147.516 40.4667 145.316 42C145.049 46.6667 143.682 54.8333 141.216 66.5C138.749 78.1667 137.516 87.5667 137.516 94.7C133.916 96.1667 129.282 97.0667 123.616 97.4ZM194.872 36.9C194.872 39.7 193.972 44.5333 192.172 51.4C190.372 58.2 189.472 62.6667 189.472 64.8C189.472 66.8667 189.772 67.9 190.372 67.9C190.772 67.9 192.305 67.2667 194.972 66L196.172 65.4L197.872 68.9C197.272 69.4333 196.472 70.1 195.472 70.9C194.472 71.7 192.605 72.8 189.872 74.2C187.139 75.5333 184.605 76.2 182.272 76.2C179.939 76.2 178.105 75.5 176.772 74.1C175.439 72.6333 174.772 70.7 174.772 68.3C174.772 65.8333 175.605 61.5 177.272 55.3C178.939 49.0333 179.772 44.9667 179.772 43.1C179.772 40.3 178.905 37.6667 177.172 35.2L176.272 34L176.372 32.7C179.905 31.7 185.639 31.2 193.572 31.2C194.439 32.2 194.872 34.1 194.872 36.9ZM183.472 20.3C182.139 18.9667 181.472 17.2 181.472 15C181.472 12.8 182.372 10.8667 184.172 9.19999C186.039 7.53333 188.172 6.7 190.572 6.7C192.972 6.7 194.839 7.36666 196.172 8.7C197.505 10.0333 198.172 11.8 198.172 14C198.172 16.1333 197.205 18.0333 195.272 19.7C193.405 21.3667 191.305 22.2 188.972 22.2C186.639 22.2 184.805 21.5667 183.472 20.3ZM203.418 75.3H202.718C202.585 74.7667 202.518 73.5667 202.518 71.7C202.518 69.7667 203.418 64.6333 205.218 56.3C207.018 47.9667 207.918 43.2 207.918 42C207.918 39.9333 206.985 37.6667 205.118 35.2L204.218 34L204.318 32.7C207.918 31.7 213.685 31.2 221.618 31.2C222.418 32.9333 222.818 35.3667 222.818 38.5C223.551 37.3 225.085 35.7 227.418 33.7C229.751 31.7 232.151 30.7 234.618 30.7C238.218 30.7 240.018 33.8333 240.018 40.1C239.685 40.5 239.218 41.0333 238.618 41.7C238.085 42.3 236.951 43.1667 235.218 44.3C233.551 45.4333 231.918 46.1333 230.318 46.4C230.251 46.4 229.685 45.5 228.618 43.7C227.551 41.9 226.751 41 226.218 41C224.551 41.6 223.085 42.6 221.818 44C218.751 57.8 217.218 66.7333 217.218 70.8C217.218 72.2667 217.251 73.3 217.318 73.9C214.985 74.8333 210.351 75.3 203.418 75.3ZM237.444 57.7C237.444 49.3667 239.944 42.8 244.944 38C250.01 33.1333 255.744 30.7 262.144 30.7C266.077 30.7 269.31 31.6667 271.844 33.6C274.377 35.5333 275.644 38.1333 275.644 41.4C275.644 44.6 274.81 47.3 273.144 49.5C271.544 51.7 269.577 53.4 267.244 54.6C262.51 56.9333 258.177 58.4 254.244 59L251.844 59.3C252.31 65.5667 254.877 68.7 259.544 68.7C261.144 68.7 262.844 68.3 264.644 67.5C266.444 66.7 267.844 65.9 268.844 65.1L270.344 63.9L272.744 67.1C272.21 67.8333 271.144 68.8 269.544 70C267.944 71.2 266.444 72.2 265.044 73C261.177 75.1333 256.944 76.2 252.344 76.2C247.744 76.2 244.11 74.5667 241.444 71.3C238.777 68.0333 237.444 63.5 237.444 57.7ZM251.744 54.4C255.144 53.8 257.844 52.3667 259.844 50.1C261.844 47.8333 262.844 44.9 262.844 41.3C262.844 37.7 261.777 35.9 259.644 35.9C257.11 35.9 255.144 38.0667 253.744 42.4C252.41 46.6667 251.744 50.6667 251.744 54.4ZM311.805 76.2C307.205 76.2 303.605 74.6 301.005 71.4C298.405 68.1333 297.105 63.6 297.105 57.8C297.105 50.4 299.071 44.0333 303.005 38.7C307.005 33.3667 312.505 30.7 319.505 30.7L323.105 30.9C324.238 30.3 325.505 30 326.905 30C332.171 30 334.805 34.9667 334.805 44.9C337.538 44.7667 340.305 44.4 343.105 43.8L344.705 43.4L345.305 47.3C343.105 48.2333 340.138 49.0667 336.405 49.8L334.405 50.2C333.138 57.2 330.571 63.3 326.705 68.5C322.838 73.6333 317.871 76.2 311.805 76.2ZM317.205 67.6C320.005 67.6 322.505 65.8 324.705 62.2C326.971 58.6 328.538 54.8 329.405 50.8C322.271 50.8 318.705 48.1333 318.705 42.8C318.705 40.6667 319.138 38.6667 320.005 36.8L320.505 35.8C320.238 35.6667 319.905 35.6 319.505 35.6C319.105 35.6 318.805 35.6667 318.605 35.8C316.938 36.8667 315.371 39.3667 313.905 43.3C312.438 47.2333 311.705 51.7333 311.705 56.8C311.705 64 313.538 67.6 317.205 67.6ZM367.923 31.9C367.789 33.3667 367.189 35.3 366.123 37.7C363.589 37.4333 361.089 37.3 358.623 37.3H358.223C356.823 53.7667 355.523 65.9333 354.323 73.8C353.123 81.6667 351.556 87.1667 349.623 90.3C347.223 90.2333 344.723 89.9 342.123 89.3C339.589 88.7667 337.856 88.2 336.923 87.6C338.523 82.6667 340.123 75.2333 341.723 65.3C343.389 55.3667 344.456 46.2 344.923 37.8C343.056 37.9333 340.989 38.1667 338.723 38.5C338.523 37.6333 338.423 36.7667 338.423 35.9C338.423 34.9667 338.556 33.6333 338.823 31.9H345.223C345.356 26.1 345.656 21.7 346.123 18.7C346.923 13.3667 348.756 9.2 351.623 6.2C354.556 3.13333 358.323 1.6 362.923 1.6C365.856 1.6 368.156 2.26666 369.823 3.6C371.556 4.86666 372.423 6.89999 372.423 9.69999C372.423 12.5 371.156 16.1333 368.623 20.6C366.089 25 362.756 28.7667 358.623 31.9H367.923ZM358.823 25.6C361.423 23.4 363.456 20.9667 364.923 18.3C366.389 15.6333 367.123 13.2333 367.123 11.1C367.123 8.89999 366.423 7.79999 365.023 7.79999C362.089 7.79999 360.223 11.1667 359.423 17.9C359.156 20.1667 358.956 22.7333 358.823 25.6ZM442.839 5.9C440.172 5.9 437.606 6.46666 435.139 7.6C437.939 9.86666 439.339 12.7 439.339 16.1C439.339 19.5 438.439 22.5 436.639 25.1C434.839 27.7 432.572 29 429.839 29C427.172 29 425.006 28.1667 423.339 26.5C421.739 24.7667 420.939 22.4 420.939 19.4C420.939 16.4 421.939 13.4667 423.939 10.6C420.806 10.8 418.139 12.1333 415.939 14.6C413.739 17 412.639 20.2 412.639 24.2C412.639 28.2 413.439 31.7333 415.039 34.8C417.306 34.3333 419.606 34.1 421.939 34.1C429.472 34.1 433.239 36.3667 433.239 40.9C433.239 42.8333 432.472 44.5667 430.939 46.1C429.472 47.5667 426.972 48.3 423.439 48.3C419.972 48.3 416.172 47.0667 412.039 44.6C408.172 48.2667 406.239 52.3333 406.239 56.8C406.239 59.7333 407.172 62.1667 409.039 64.1C410.906 66.0333 413.439 67 416.639 67C419.839 67 423.172 65.9333 426.639 63.8C430.106 61.6667 433.172 59.1 435.839 56.1L439.439 59.3C437.706 61.8333 435.306 64.5333 432.239 67.4C426.039 73.2667 419.172 76.2 411.639 76.2C406.506 76.2 401.772 74.8667 397.439 72.2C395.306 70.8 393.572 68.8667 392.239 66.4C390.906 63.9333 390.239 61.1 390.239 57.9C390.239 49.1 394.972 42.4667 404.439 38C401.106 33.8 399.439 29.1333 399.439 24C399.439 17.6667 401.772 12.7667 406.439 9.3C411.106 5.76666 416.572 4 422.839 4C425.372 4 427.672 4.3 429.739 4.9C434.206 1.83333 439.106 0.299996 444.439 0.299996C446.906 0.299996 449.172 0.633329 451.239 1.3C453.372 1.96666 454.906 2.76666 455.839 3.69999C455.706 5.9 454.972 7.73333 453.639 9.19999L452.939 9.9C450.606 7.23333 447.239 5.9 442.839 5.9ZM433.439 17.8C433.439 14.9333 432.172 12.8333 429.639 11.5C427.639 13.6333 426.639 16.1667 426.639 19.1C426.639 22.0333 427.672 23.5 429.739 23.5C430.806 23.5 431.672 22.9667 432.339 21.9C433.072 20.7667 433.439 19.4 433.439 17.8ZM427.839 41.2C427.839 40.5333 427.439 40 426.639 39.6C425.906 39.1333 424.806 38.9 423.339 38.9C421.939 38.9 420.339 39.3 418.539 40.1C420.406 42.0333 422.406 43 424.539 43C426.739 43 427.839 42.4 427.839 41.2ZM445.817 75.3H443.917C443.917 72.1667 444.851 66.1667 446.717 57.3C448.651 48.4333 449.617 43.4 449.617 42.2C449.617 40 448.684 37.6667 446.817 35.2L445.917 34L446.017 32.7C449.617 31.7 455.384 31.2 463.317 31.2C464.251 32.4667 464.717 34.5333 464.717 37.4C470.717 32.9333 475.484 30.7 479.017 30.7C483.484 30.7 486.117 33 486.917 37.6C488.717 36.1333 491.051 34.6333 493.917 33.1C496.851 31.5 499.451 30.7 501.717 30.7C504.051 30.7 505.984 31.4667 507.517 33C509.051 34.4667 509.817 36.5333 509.817 39.2C509.817 41.8667 509.084 46.2667 507.617 52.4C506.151 58.5333 505.417 62.6667 505.417 64.8C505.417 66.8667 505.717 67.9 506.317 67.9C506.717 67.9 508.084 67.2667 510.417 66L511.517 65.4L513.317 68.9C511.584 70.6333 509.217 72.3 506.217 73.9C503.284 75.4333 500.684 76.2 498.417 76.2C493.417 76.2 490.917 73.3667 490.917 67.7C490.917 65.6333 491.617 61.5 493.017 55.3C494.484 49.0333 495.217 44.9667 495.217 43.1C495.217 41.1667 494.651 40.2 493.517 40.2C491.584 40.2 489.384 40.9333 486.917 42.4C486.784 43.7333 485.851 48.2667 484.117 56C482.451 63.7333 481.617 69.7333 481.617 74C479.684 74.8667 475.151 75.3 468.017 75.3C467.884 74.5667 467.817 72.8 467.817 70C467.817 67.2 468.584 62.4333 470.117 55.7C471.717 48.9667 472.517 44.7 472.517 42.9C472.517 41.1 471.884 40.2 470.617 40.2C468.617 40.2 466.417 41 464.017 42.6C463.884 43.2 463.217 46.1333 462.017 51.4C459.617 61.9333 458.417 69.4333 458.417 73.9C456.084 74.8333 451.884 75.3 445.817 75.3ZM530.555 76.2C525.955 76.2 522.355 74.6 519.755 71.4C517.155 68.1333 515.855 63.6 515.855 57.8C515.855 50.4 517.821 44.0333 521.755 38.7C525.755 33.3667 531.255 30.7 538.255 30.7L541.855 30.9C542.988 30.3 544.255 30 545.655 30C550.921 30 553.555 34.9667 553.555 44.9C556.288 44.7667 559.055 44.4 561.855 43.8L563.455 43.4L564.055 47.3C561.855 48.2333 558.888 49.0667 555.155 49.8L553.155 50.2C551.888 57.2 549.321 63.3 545.455 68.5C541.588 73.6333 536.621 76.2 530.555 76.2ZM535.955 67.6C538.755 67.6 541.255 65.8 543.455 62.2C545.721 58.6 547.288 54.8 548.155 50.8C541.021 50.8 537.455 48.1333 537.455 42.8C537.455 40.6667 537.888 38.6667 538.755 36.8L539.255 35.8C538.988 35.6667 538.655 35.6 538.255 35.6C537.855 35.6 537.555 35.6667 537.355 35.8C535.688 36.8667 534.121 39.3667 532.655 43.3C531.188 47.2333 530.455 51.7333 530.455 56.8C530.455 64 532.288 67.6 535.955 67.6ZM588.773 31.9C588.639 33.5667 588.073 35.5 587.073 37.7C584.539 37.4333 582.139 37.3 579.873 37.3H578.073C575.006 52.1667 573.473 61.4333 573.473 65.1C573.473 67.0333 573.873 68 574.673 68C575.539 68 577.773 67.1667 581.373 65.5L583.173 68.8C577.239 73.7333 571.739 76.2 566.673 76.2C564.339 76.2 562.406 75.4667 560.873 74C559.406 72.5333 558.673 70.6 558.673 68.2C558.673 65.7333 558.939 62.9667 559.473 59.9C560.073 56.8333 560.873 53.1 561.873 48.7C562.873 44.2333 563.606 40.6333 564.073 37.9C561.606 38.1 559.773 38.3 558.573 38.5C558.439 37.7 558.373 36.6333 558.373 35.3C558.373 33.9 558.473 32.7667 558.673 31.9H564.973C565.506 28.3 565.773 24.9 565.773 21.7L565.673 18.6V18.3C570.873 16.5 575.773 15.6 580.373 15.6C580.639 16.9333 580.773 18.6 580.773 20.6C580.773 22.6 580.206 26.3667 579.073 31.9H588.773ZM608.641 36.9C608.641 39.7 607.741 44.5333 605.941 51.4C604.141 58.2 603.241 62.6667 603.241 64.8C603.241 66.8667 603.541 67.9 604.141 67.9C604.541 67.9 606.075 67.2667 608.741 66L609.941 65.4L611.641 68.9C611.041 69.4333 610.241 70.1 609.241 70.9C608.241 71.7 606.375 72.8 603.641 74.2C600.908 75.5333 598.375 76.2 596.041 76.2C593.708 76.2 591.875 75.5 590.541 74.1C589.208 72.6333 588.541 70.7 588.541 68.3C588.541 65.8333 589.375 61.5 591.041 55.3C592.708 49.0333 593.541 44.9667 593.541 43.1C593.541 40.3 592.675 37.6667 590.941 35.2L590.041 34L590.141 32.7C593.675 31.7 599.408 31.2 607.341 31.2C608.208 32.2 608.641 34.1 608.641 36.9ZM597.241 20.3C595.908 18.9667 595.241 17.2 595.241 15C595.241 12.8 596.141 10.8667 597.941 9.19999C599.808 7.53333 601.941 6.7 604.341 6.7C606.741 6.7 608.608 7.36666 609.941 8.7C611.275 10.0333 611.941 11.8 611.941 14C611.941 16.1333 610.975 18.0333 609.041 19.7C607.175 21.3667 605.075 22.2 602.741 22.2C600.408 22.2 598.575 21.5667 597.241 20.3ZM629.188 76.2C624.588 76.2 620.988 74.6 618.388 71.4C615.788 68.1333 614.488 63.6 614.488 57.8C614.488 50.4 616.454 44.0333 620.388 38.7C624.388 33.3667 629.888 30.7 636.888 30.7L640.488 30.9C641.621 30.3 642.888 30 644.288 30C649.554 30 652.188 34.9667 652.188 44.9C654.921 44.7667 657.688 44.4 660.488 43.8L662.088 43.4L662.687 47.3C660.488 48.2333 657.521 49.0667 653.788 49.8L651.788 50.2C650.521 57.2 647.954 63.3 644.088 68.5C640.221 73.6333 635.254 76.2 629.188 76.2ZM634.588 67.6C637.388 67.6 639.888 65.8 642.088 62.2C644.354 58.6 645.921 54.8 646.788 50.8C639.654 50.8 636.088 48.1333 636.088 42.8C636.088 40.6667 636.521 38.6667 637.388 36.8L637.887 35.8C637.621 35.6667 637.288 35.6 636.888 35.6C636.488 35.6 636.188 35.6667 635.988 35.8C634.321 36.8667 632.754 39.3667 631.288 43.3C629.821 47.2333 629.088 51.7333 629.088 56.8C629.088 64 630.921 67.6 634.588 67.6ZM657.341 75.3H655.441C655.441 72.1667 656.374 66.1667 658.241 57.3C660.174 48.4333 661.141 43.4 661.141 42.2C661.141 40 660.207 37.6667 658.341 35.2L657.441 34L657.541 32.7C661.141 31.7 666.907 31.2 674.841 31.2C675.707 32.3333 676.174 34.4 676.241 37.4C682.041 32.9333 686.941 30.7 690.941 30.7C693.341 30.7 695.241 31.5333 696.641 33.2C698.107 34.8667 698.841 36.9667 698.841 39.5C698.841 41.9667 698.074 46.2667 696.541 52.4C695.007 58.5333 694.241 62.6667 694.241 64.8C694.241 66.8667 694.507 67.9 695.041 67.9C695.441 67.9 696.841 67.2667 699.241 66L700.441 65.4L702.241 68.9C701.641 69.4333 700.841 70.1 699.841 70.9C698.841 71.7 696.974 72.8 694.241 74.2C691.574 75.5333 689.174 76.2 687.041 76.2C682.174 76.2 679.741 73.4333 679.741 67.9C679.741 65.5667 680.474 61.2667 681.941 55C683.474 48.7333 684.241 44.7 684.241 42.9C684.241 41.1 683.674 40.2 682.541 40.2C680.607 40.2 678.241 41.0333 675.441 42.7C675.241 43.8333 674.574 46.8333 673.441 51.7C671.107 62.1667 669.941 69.5667 669.941 73.9C667.607 74.8333 663.407 75.3 657.341 75.3ZM736.322 61.9C736.322 66.1 734.455 69.5333 730.722 72.2C727.055 74.8667 722.855 76.2 718.122 76.2C713.389 76.2 709.622 75.2 706.822 73.2C704.089 71.2 702.722 69.4333 702.722 67.9C702.722 66.9667 703.889 65.4667 706.222 63.4C708.555 61.2667 710.522 59.9667 712.122 59.5C715.455 61.9667 718.189 65.8667 720.322 71.2C722.789 71 724.022 69.8333 724.022 67.7C724.022 64.6333 721.322 60.3 715.922 54.7C710.522 49.0333 707.822 44.5333 707.822 41.2C707.822 37.8667 709.322 35.3 712.322 33.5C715.322 31.6333 718.922 30.7 723.122 30.7C727.389 30.7 730.589 31.4667 732.722 33C734.855 34.4667 735.922 36.5 735.922 39.1C735.922 41.6333 733.889 45.1667 729.822 49.7C730.289 50.1667 730.889 50.8 731.622 51.6C732.355 52.3333 733.322 53.7667 734.522 55.9C735.722 58.0333 736.322 60.0333 736.322 61.9ZM726.722 46.2C729.522 43.8 730.922 41.4333 730.922 39.1C730.922 36.7667 729.322 35.6 726.122 35.6C724.589 35.6 723.322 35.9333 722.322 36.6C721.322 37.2 720.822 37.9 720.822 38.7C720.822 40.1667 722.289 42.2333 725.222 44.9L726.722 46.2Z" fill="url(#paint0_linear_1_2)"/>
</g>
<defs>
<filter id="filter0_b_1_2" x="-3.79999" y="-3.70001" width="744.122" height="105.1" filterUnits="userSpaceOnUse" color-interpolation-filters="sRGB">
<feFlood flood-opacity="0" result="BackgroundImageFix"/>
<feGaussianBlur in="BackgroundImageFix" stdDeviation="2"/>
<feComposite in2="SourceAlpha" operator="in" result="effect1_backgroundBlur_1_2"/>
<feBlend mode="normal" in="SourceGraphic" in2="effect1_backgroundBlur_1_2" result="shape"/>
</filter>
<linearGradient id="paint0_linear_1_2" x1="-4.99999" y1="110.904" x2="797" y2="49.0963" gradientUnits="userSpaceOnUse">
<stop stop-color="#C6972F"/>
<stop offset="0.0166492" stop-color="#B37E10"/>
<stop offset="0.03" stop-color="#F8DD7B"/>
<stop offset="0.04" stop-color="#F8DD7B"/>
<stop offset="0.05" stop-color="#F6DA78"/>
<stop offset="0.0597103" stop-color="#DEB953"/>
<stop offset="0.07" stop-color="#CB9F36"/>
<stop offset="0.08" stop-color="#BE8D21"/>
<stop offset="0.09" stop-color="#B68214"/>
<stop offset="0.09" stop-color="#B37E10"/>
<stop offset="0.1" stop-color="#C6972F"/>
<stop offset="0.11" stop-color="#B37E10"/>
<stop offset="0.12" stop-color="#F8DD7B"/>
<stop offset="0.135181" stop-color="#F8DD7B"/>
<stop offset="0.147889" stop-color="#F6DA78"/>
<stop offset="0.16" stop-color="#DEB953"/>
<stop offset="0.17" stop-color="#CB9F36"/>
<stop offset="0.179503" stop-color="#BE8D21"/>
<stop offset="0.188866" stop-color="#B68214"/>
<stop offset="0.196127" stop-color="#B37E10"/>
<stop offset="0.206247" stop-color="#C6972F"/>
<stop offset="0.214806" stop-color="#B37E10"/>
<stop offset="0.23" stop-color="#F8DD7B"/>
<stop offset="0.24" stop-color="#F8DD7B"/>
<stop offset="0.25" stop-color="#F6DA78"/>
<stop offset="0.26" stop-color="#DEB953"/>
<stop offset="0.27" stop-color="#CB9F36"/>
<stop offset="0.280875" stop-color="#BE8D21"/>
<stop offset="0.287603" stop-color="#B68214"/>
<stop offset="0.294428" stop-color="#B37E10"/>
<stop offset="0.3" stop-color="#C6972F"/>
<stop offset="0.31" stop-color="#B37E10"/>
<stop offset="0.33" stop-color="#F8DD7B"/>
<stop offset="0.34" stop-color="#F8DD7B"/>
<stop offset="0.35" stop-color="#F6DA78"/>
<stop offset="0.36" stop-color="#DEB953"/>
<stop offset="0.37" stop-color="#CB9F36"/>
<stop offset="0.38" stop-color="#BE8D21"/>
<stop offset="0.39" stop-color="#B68214"/>
<stop offset="0.395068" stop-color="#B37E10"/>
<stop offset="0.4" stop-color="#C6972F"/>
<stop offset="0.41" stop-color="#B37E10"/>
<stop offset="0.43" stop-color="#F8DD7B"/>
<stop offset="0.44" stop-color="#F8DD7B"/>
<stop offset="0.45" stop-color="#F6DA78"/>
<stop offset="0.46" stop-color="#DEB953"/>
<stop offset="0.47" stop-color="#CB9F36"/>
<stop offset="0.48" stop-color="#BE8D21"/>
<stop offset="0.49" stop-color="#B68214"/>
<stop offset="0.49" stop-color="#B37E10"/>
<stop offset="0.5" stop-color="#C6972F"/>
<stop offset="0.509954" stop-color="#B37E10"/>
<stop offset="0.53" stop-color="#F6DA78"/>
<stop offset="0.54" stop-color="#F8DD7B"/>
<stop offset="0.55" stop-color="#F6DA78"/>
<stop offset="0.56" stop-color="#DEB953"/>
<stop offset="0.57" stop-color="#CB9F36"/>
<stop offset="0.58" stop-color="#BE8D21"/>
<stop offset="0.59" stop-color="#B68214"/>
<stop offset="0.594248" stop-color="#B37E10"/>
<stop offset="0.6" stop-color="#C6972F"/>
<stop offset="0.61" stop-color="#B37E10"/>
<stop offset="0.63" stop-color="#F8DD7B"/>
<stop offset="0.64" stop-color="#F8DD7B"/>
<stop offset="0.65" stop-color="#F6DA78"/>
<stop offset="0.66" stop-color="#DEB953"/>
<stop offset="0.67" stop-color="#CB9F36"/>
<stop offset="0.68" stop-color="#BE8D21"/>
<stop offset="0.69" stop-color="#B68214"/>
<stop offset="0.697213" stop-color="#B37E10"/>
<stop offset="0.702922" stop-color="#C6972F"/>
<stop offset="0.71" stop-color="#B37E10"/>
<stop offset="0.73" stop-color="#F8DD7B"/>
<stop offset="0.74" stop-color="#F8DD7B"/>
<stop offset="0.75" stop-color="#F6DA78"/>
<stop offset="0.76" stop-color="#DEB953"/>
<stop offset="0.77" stop-color="#CB9F36"/>
<stop offset="0.78" stop-color="#BE8D21"/>
<stop offset="0.79" stop-color="#B68214"/>
<stop offset="0.79" stop-color="#B37E10"/>
<stop offset="0.8" stop-color="#C6972F"/>
<stop offset="0.81" stop-color="#B37E10"/>
<stop offset="0.83" stop-color="#F8DD7B"/>
<stop offset="0.84" stop-color="#F8DD7B"/>
<stop offset="0.85" stop-color="#F6DA78"/>
<stop offset="0.86" stop-color="#DEB953"/>
<stop offset="0.87" stop-color="#CB9F36"/>
<stop offset="0.88" stop-color="#BE8D21"/>
<stop offset="0.89" stop-color="#B68214"/>
<stop offset="0.895886" stop-color="#B37E10"/>
<stop offset="0.901333" stop-color="#C6972F"/>
<stop offset="0.91" stop-color="#B37E10"/>
<stop offset="0.918963" stop-color="#F2D572"/>
<stop offset="0.93" stop-color="#F8DD7B"/>
<stop offset="0.94" stop-color="#F8DD7B"/>
<stop offset="0.95" stop-color="#F6DA78"/>
<stop offset="0.96" stop-color="#DEB953"/>
<stop offset="0.97" stop-color="#CB9F36"/>
<stop offset="0.98" stop-color="#BE8D21"/>
<stop offset="0.985" stop-color="#B68214"/>
<stop offset="0.993414" stop-color="#B37E10"/>
</linearGradient>
</defs>
</svg>
