<svg  viewBox="0 0 190 170" fill="none" xmlns="http://www.w3.org/2000/svg">
<path d="M152.531 169.476C151.051 169.476 149.581 169.038 148.32 168.183L100.679 135.867L75.127 154.253C73.123 155.694 70.54 156.057 68.213 155.225C65.889 154.391 64.124 152.466 63.494 150.079L50.664 101.457L4.82101 83.928C1.93501 82.824 0.0210067 80.063 6.66063e-06 76.973C-0.0209933 73.883 1.85501 71.096 4.72701 69.953L179.039 0.593C179.83 0.257 180.667 0.0629991 181.511 0.0109991C181.813 -0.00700093 182.116 -0.00700038 182.417 0.00999962C184.165 0.114 185.882 0.826 187.222 2.14C187.361 2.276 187.493 2.415 187.618 2.56C188.728 3.828 189.338 5.374 189.453 6.949C189.481 7.345 189.479 7.746 189.444 8.147C189.42 8.433 189.379 8.718 189.321 9.001L159.898 163.38C159.425 165.86 157.737 167.936 155.405 168.903C154.48 169.287 153.503 169.476 152.531 169.476ZM104.862 120.579L147.299 149.364L170.193 29.24L87.506 108.806L104.662 120.444C104.731 120.487 104.797 120.533 104.862 120.579ZM69.535 114.178L75.217 135.708L87.459 126.899L71.429 116.025C70.684 115.521 70.046 114.893 69.535 114.178ZM28.136 76.782L59.614 88.817C61.869 89.679 63.571 91.575 64.187 93.909L68.179 109.038C68.362 107.293 69.153 105.651 70.438 104.414L149.227 28.6L28.136 76.782Z" fill="#289DF1"/>
</svg>
