<?xml version="1.0"?>
<svg width="3000" height="2000" xmlns="http://www.w3.org/2000/svg" xmlns:svg="http://www.w3.org/2000/svg" enable-background="new 0 0 3000 2000" version="1.1" xml:space="preserve">
 <style type="text/css">.st0{fill:url(#SVGID_1_);}
	.st1{fill:url(#SVGID_2_);}
	.st2{fill:url(#SVGID_3_);}
	.st3{fill:url(#SVGID_4_);}
	.st4{fill:url(#SVGID_5_);}
	.st5{fill:url(#SVGID_6_);}
	.st6{fill:url(#SVGID_7_);}
	.st7{fill:url(#SVGID_8_);}
	.st8{fill:url(#SVGID_9_);}
	.st9{fill:url(#SVGID_10_);}
	.st10{fill:url(#SVGID_11_);}
	.st11{fill:url(#SVGID_12_);}
	.st12{fill:url(#SVGID_13_);}
	.st13{fill:url(#SVGID_14_);}
	.st14{fill:url(#SVGID_15_);}
	.st15{fill:url(#SVGID_16_);}
	.st16{fill:url(#SVGID_17_);}
	.st17{fill:url(#SVGID_18_);}
	.st18{fill:url(#SVGID_19_);}</style>
 <g class="layer">
  <title>Layer 1</title>
  <g id="svg_2">
   <g id="svg_3">
    <linearGradient gradientUnits="userSpaceOnUse" id="SVGID_1_" x1="1132.67" x2="1196.75" y1="1333.45" y2="1333.45">
     <stop offset="0" stop-color="#C6972F"/>
     <stop offset="0.12" stop-color="#B37E10"/>
     <stop offset="0.26" stop-color="#F8DD7B"/>
     <stop offset="0.37" stop-color="#F8DD7B"/>
     <stop offset="0.38" stop-color="#F6DA78"/>
     <stop offset="0.5" stop-color="#DEB953"/>
     <stop offset="0.62" stop-color="#CB9F36"/>
     <stop offset="0.74" stop-color="#BE8D21"/>
     <stop offset="0.86" stop-color="#B68214"/>
     <stop offset="0.97" stop-color="#B37E10"/>
    </linearGradient>
    <path class="st0" d="m1196.75,1347.04c-2.4,2.12 -4.73,3.61 -6.99,4.48c-2.26,0.87 -4.05,1.31 -5.36,1.31c-3.39,0 -6.75,-1.32 -10.09,-3.95c-6.77,10.26 -14.54,15.38 -23.29,15.38c-5.46,0 -9.88,-2.05 -13.27,-6.14c-3.39,-4.09 -5.08,-9.53 -5.08,-16.3c0,-10.73 3.81,-19.93 11.43,-27.63c7.62,-7.69 16.72,-11.54 27.31,-11.54c4,0 6.93,0.43 8.79,1.31c1.86,0.87 3,1.89 3.42,3.07c0.42,1.18 0.63,2.66 0.63,4.44c0,8.8 -2.4,19.59 -7.2,32.39c2.4,2.21 4.92,3.32 7.55,3.32c3.15,0 7.2,-2.75 12.14,-8.26l0,8.12l0.01,0zm-23.29,-39.45c-0.71,-0.28 -1.72,-0.42 -3.03,-0.42c-6.12,0 -10.9,3.2 -14.36,9.6c-3.46,6.4 -5.19,13.88 -5.19,22.44c0,4.75 0.75,8.45 2.26,11.08c1.51,2.63 3.6,3.95 6.28,3.95c3.34,0 6.96,-3.08 10.87,-9.24c-4.42,-5.55 -6.63,-11.53 -6.63,-17.92c-0.01,-7.54 3.26,-14.03 9.8,-19.49z" id="svg_4"/>
    <linearGradient gradientUnits="userSpaceOnUse" id="SVGID_2_" x1="1195.12" x2="1253.98" y1="1330.42" y2="1330.42">
     <stop offset="0" stop-color="#C6972F"/>
     <stop offset="0.12" stop-color="#B37E10"/>
     <stop offset="0.26" stop-color="#F8DD7B"/>
     <stop offset="0.37" stop-color="#F8DD7B"/>
     <stop offset="0.38" stop-color="#F6DA78"/>
     <stop offset="0.5" stop-color="#DEB953"/>
     <stop offset="0.62" stop-color="#CB9F36"/>
     <stop offset="0.74" stop-color="#BE8D21"/>
     <stop offset="0.86" stop-color="#B68214"/>
     <stop offset="0.97" stop-color="#B37E10"/>
    </linearGradient>
    <path class="st1" d="m1253.98,1347.04c-4.89,5.51 -9.73,9.75 -14.52,12.74c-4.79,2.99 -9.07,4.48 -12.83,4.48c-1.79,0 -4.23,-0.68 -7.33,-2.04c-1.98,10.35 -3.73,21.51 -5.24,33.51c-4.9,0.66 -10.78,1.67 -17.66,3.04c1.51,-12.89 4.12,-29.62 7.83,-50.17c-0.52,-0.89 -1.43,-3.15 -2.75,-6.78l-4.73,5.22l-1.62,0l0,-6.35l13.45,-13.95c2.56,-12.62 4.64,-21.76 6.24,-27.4c1.6,-5.64 3.83,-11.89 6.7,-18.73c2.87,-6.85 4.68,-10.77 5.43,-11.78c0.75,-1.01 2.58,-1.98 5.47,-2.89c2.89,-0.92 5.99,-1.79 9.28,-2.61c3.29,-0.82 5.06,-1.24 5.29,-1.24c1.79,0 3.25,1.16 4.38,3.49c1.13,2.33 1.69,5.39 1.69,9.2c0,6.58 -1.74,12.92 -5.21,19.03c-3.47,6.11 -10.04,13.63 -19.71,22.56l-5.93,29.49c2.3,4.93 5.75,7.4 10.35,7.4c6.57,0 13.71,-4.77 21.41,-14.32l0,8.1l0.01,0zm-23.7,-40.22c5.5,-4.8 9.81,-9.96 12.94,-15.49c3.13,-5.53 4.69,-10.62 4.69,-15.28c0,-1.98 -0.36,-3.6 -1.09,-4.87c-0.73,-1.27 -1.63,-1.9 -2.71,-1.9c-2.06,0 -4.16,2.71 -6.3,8.12c-2.13,5.41 -4.64,15.21 -7.53,29.42z" id="svg_5"/>
    <linearGradient gradientUnits="userSpaceOnUse" id="SVGID_3_" x1="1292.65" x2="1365.4" y1="1313.17" y2="1313.17">
     <stop offset="0" stop-color="#C6972F"/>
     <stop offset="0.12" stop-color="#B37E10"/>
     <stop offset="0.26" stop-color="#F8DD7B"/>
     <stop offset="0.37" stop-color="#F8DD7B"/>
     <stop offset="0.38" stop-color="#F6DA78"/>
     <stop offset="0.5" stop-color="#DEB953"/>
     <stop offset="0.62" stop-color="#CB9F36"/>
     <stop offset="0.74" stop-color="#BE8D21"/>
     <stop offset="0.86" stop-color="#B68214"/>
     <stop offset="0.97" stop-color="#B37E10"/>
    </linearGradient>
    <path class="st2" d="m1365.4,1346.97c-6.07,5.95 -12.16,10.32 -18.28,13.11c-6.12,2.79 -13.03,4.18 -20.75,4.18c-10.21,0 -18.38,-2.47 -24.52,-7.41c-6.14,-4.94 -9.21,-11.43 -9.21,-19.48c0,-7.01 2.52,-13.16 7.55,-18.45c5.03,-5.29 12.75,-8.97 23.15,-11.04c-10.02,-3.81 -15.03,-10.23 -15.03,-19.26c0,-7.2 3.46,-13.42 10.37,-18.66c6.92,-5.25 15.24,-7.87 24.98,-7.87c7.01,0 12.09,1.38 15.24,4.13c3.15,2.75 4.73,5.26 4.73,7.52c0,1.41 -1.18,3.6 -3.53,6.56c-2.35,2.96 -4.07,4.45 -5.15,4.45c-1.27,0 -2.19,-1.79 -2.75,-5.36c-1.32,-8 -4.54,-12 -9.67,-12c-4,0 -7.62,2.23 -10.87,6.7c-3.25,4.47 -4.87,9.53 -4.87,15.17c0,9.03 4.42,13.55 13.27,13.55c1.46,0 2.45,0.08 2.96,0.25c0.52,0.17 0.78,0.58 0.78,1.24c0,1.79 -0.35,3.75 -1.06,5.89c-0.71,2.14 -1.6,3.21 -2.68,3.21c-0.33,0 -1.51,-0.13 -3.53,-0.39c-2.02,-0.26 -3.79,-0.39 -5.29,-0.39c-4.99,0 -9.27,2.05 -12.84,6.14c-3.58,4.09 -5.36,9.03 -5.36,14.82c0,6.26 2.09,11.44 6.28,15.56c4.19,4.12 9.48,6.17 15.88,6.17c5.27,0 10.54,-1.42 15.81,-4.25c5.27,-2.83 10.07,-6.9 14.4,-12.19l0,8.1l-0.01,0z" id="svg_6"/>
    <linearGradient gradientUnits="userSpaceOnUse" id="SVGID_4_" x1="1364.62" x2="1469.27" y1="1333.31" y2="1333.31">
     <stop offset="0" stop-color="#C6972F"/>
     <stop offset="0.12" stop-color="#B37E10"/>
     <stop offset="0.26" stop-color="#F8DD7B"/>
     <stop offset="0.37" stop-color="#F8DD7B"/>
     <stop offset="0.38" stop-color="#F6DA78"/>
     <stop offset="0.5" stop-color="#DEB953"/>
     <stop offset="0.62" stop-color="#CB9F36"/>
     <stop offset="0.74" stop-color="#BE8D21"/>
     <stop offset="0.86" stop-color="#B68214"/>
     <stop offset="0.97" stop-color="#B37E10"/>
    </linearGradient>
    <path class="st3" d="m1469.27,1347.04c-5.88,5.74 -10.92,10.05 -15.1,12.91c-4.19,2.87 -8.26,4.3 -12.21,4.3c-3.1,0 -5.56,-1.07 -7.37,-3.21c-1.81,-2.14 -2.72,-5.02 -2.72,-8.65c0,-5.08 1.27,-11.53 3.81,-19.34c2.54,-7.81 3.81,-12.56 3.81,-14.25c0,-1.51 -0.78,-2.26 -2.33,-2.26c-0.47,0 -1.04,0.17 -1.69,0.5c-0.71,0.33 -1.51,0.8 -2.4,1.41c-0.89,0.66 -1.86,1.46 -2.89,2.4c-1.03,0.94 -2.12,2.02 -3.25,3.25c-1.22,1.22 -2.45,2.57 -3.67,4.02c-2.07,2.45 -3.29,4.49 -3.67,6.14l-2.35,10.1l-4.27,16.66l-17.88,3.24l6.84,-29.07c0.52,-2.12 1.13,-5.22 1.84,-9.32c0.71,-4.09 1.06,-6.54 1.06,-7.34c0,-1.6 -0.54,-2.4 -1.62,-2.4c-0.33,0 -0.8,0.17 -1.41,0.49c-0.71,0.33 -1.51,0.82 -2.4,1.48c-1.04,0.75 -2.14,1.65 -3.32,2.68c-1.27,1.13 -2.64,2.42 -4.09,3.88c-1.55,1.55 -3.15,3.27 -4.8,5.15c-2.26,2.54 -3.67,5.51 -4.23,8.89c-0.75,4.05 -1.27,7.67 -1.55,10.87c-0.33,3.2 -0.52,6.77 -0.56,10.73l-15.67,3.74c-0.38,-5.41 -0.56,-9.93 -0.56,-13.55c0,-8.61 0.89,-16.1 2.68,-22.48c1.79,-6.37 4.7,-13.82 8.75,-22.33l17.08,-3.32c-3.06,7.67 -5.43,15.08 -7.13,22.23c12.65,-14.72 22.35,-22.09 29.07,-22.09c2.45,0 4.43,1 5.96,3c1.53,2 2.29,4.62 2.29,7.87c0,1.51 -0.24,4.28 -0.71,8.33c7.95,-7.95 13.66,-13.14 17.12,-15.56c3.46,-2.42 6.65,-3.63 9.56,-3.63c2.59,0 4.71,1.04 6.35,3.11c1.65,2.07 2.47,4.7 2.47,7.9c0,5.04 -1.39,11.51 -4.15,19.41c-2.77,7.91 -4.15,13.13 -4.15,15.66c0,2.63 0.96,3.95 2.89,3.95c1.22,0 2.92,-0.81 5.11,-2.43c2.18,-1.62 6,-5.35 11.45,-11.19l0,8.12l0.01,0z" id="svg_7"/>
    <linearGradient gradientUnits="userSpaceOnUse" id="SVGID_5_" x1="1468.57" x2="1532.64" y1="1333.45" y2="1333.45">
     <stop offset="0" stop-color="#C6972F"/>
     <stop offset="0.12" stop-color="#B37E10"/>
     <stop offset="0.26" stop-color="#F8DD7B"/>
     <stop offset="0.37" stop-color="#F8DD7B"/>
     <stop offset="0.38" stop-color="#F6DA78"/>
     <stop offset="0.5" stop-color="#DEB953"/>
     <stop offset="0.62" stop-color="#CB9F36"/>
     <stop offset="0.74" stop-color="#BE8D21"/>
     <stop offset="0.86" stop-color="#B68214"/>
     <stop offset="0.97" stop-color="#B37E10"/>
    </linearGradient>
    <path class="st4" d="m1532.64,1347.04c-2.4,2.12 -4.73,3.61 -6.99,4.48c-2.26,0.87 -4.05,1.31 -5.36,1.31c-3.39,0 -6.75,-1.32 -10.09,-3.95c-6.77,10.26 -14.54,15.38 -23.29,15.38c-5.46,0 -9.88,-2.05 -13.27,-6.14c-3.39,-4.09 -5.08,-9.53 -5.08,-16.3c0,-10.73 3.81,-19.93 11.43,-27.63c7.62,-7.69 16.72,-11.54 27.31,-11.54c4,0 6.93,0.43 8.79,1.31c1.86,0.87 3,1.89 3.42,3.07c0.42,1.18 0.63,2.66 0.63,4.44c0,8.8 -2.4,19.59 -7.2,32.39c2.4,2.21 4.92,3.32 7.55,3.32c3.15,0 7.2,-2.75 12.14,-8.26l0,8.12l0.01,0zm-23.29,-39.45c-0.71,-0.28 -1.72,-0.42 -3.03,-0.42c-6.12,0 -10.9,3.2 -14.36,9.6c-3.46,6.4 -5.19,13.88 -5.19,22.44c0,4.75 0.75,8.45 2.26,11.08c1.51,2.63 3.6,3.95 6.28,3.95c3.34,0 6.96,-3.08 10.87,-9.24c-4.42,-5.55 -6.63,-11.53 -6.63,-17.92c-0.01,-7.54 3.26,-14.03 9.8,-19.49z" id="svg_8"/>
    <linearGradient gradientUnits="userSpaceOnUse" id="SVGID_6_" x1="1531.86" x2="1573.22" y1="1321.46" y2="1321.46">
     <stop offset="0" stop-color="#C6972F"/>
     <stop offset="0.12" stop-color="#B37E10"/>
     <stop offset="0.26" stop-color="#F8DD7B"/>
     <stop offset="0.37" stop-color="#F8DD7B"/>
     <stop offset="0.38" stop-color="#F6DA78"/>
     <stop offset="0.5" stop-color="#DEB953"/>
     <stop offset="0.62" stop-color="#CB9F36"/>
     <stop offset="0.74" stop-color="#BE8D21"/>
     <stop offset="0.86" stop-color="#B68214"/>
     <stop offset="0.97" stop-color="#B37E10"/>
    </linearGradient>
    <path class="st5" d="m1573.22,1347.04c-5.93,5.88 -11.06,10.22 -15.38,13.02c-4.33,2.8 -8.44,4.2 -12.35,4.2c-4.05,0 -7.33,-1.71 -9.84,-5.12c-2.52,-3.41 -3.78,-7.89 -3.78,-13.44c0,-4.89 1.21,-11.35 3.62,-19.38l2.99,-10.68l-5.42,0.28l2.26,-11.08l6.71,-0.28l6.63,-22.02l18.85,-3.87l-7.29,24.54l9.97,-0.56l-2.33,10.87l-10.95,0.85l-4.7,15.81c-1.63,5.49 -2.45,9.87 -2.45,13.11c0,2.21 0.55,4.01 1.66,5.4c1.11,1.39 2.53,2.08 4.28,2.08c2.4,0 4.78,-0.76 7.14,-2.29c2.35,-1.53 5.82,-4.72 10.39,-9.56l0,8.12l-0.01,0z" id="svg_9"/>
    <linearGradient gradientUnits="userSpaceOnUse" id="SVGID_7_" x1="1572.44" x2="1607.86" y1="1319.45" y2="1319.45">
     <stop offset="0" stop-color="#C6972F"/>
     <stop offset="0.12" stop-color="#B37E10"/>
     <stop offset="0.26" stop-color="#F8DD7B"/>
     <stop offset="0.37" stop-color="#F8DD7B"/>
     <stop offset="0.38" stop-color="#F6DA78"/>
     <stop offset="0.5" stop-color="#DEB953"/>
     <stop offset="0.62" stop-color="#CB9F36"/>
     <stop offset="0.74" stop-color="#BE8D21"/>
     <stop offset="0.86" stop-color="#B68214"/>
     <stop offset="0.97" stop-color="#B37E10"/>
    </linearGradient>
    <path class="st6" d="m1607.86,1347.04c-11.01,11.57 -19.24,17.36 -24.7,17.36c-3.01,0 -5.55,-1.54 -7.62,-4.62c-2.07,-3.08 -3.1,-6.95 -3.1,-11.61c0,-10.02 3.39,-23.9 10.16,-41.63l17.92,-3.74l0.85,0l-7.06,22.09c-2.92,9.13 -4.37,15.64 -4.37,19.55c0,1.55 0.34,2.81 1.02,3.77c0.68,0.96 1.54,1.45 2.58,1.45c1.84,0 3.68,-0.67 5.54,-2.01c1.86,-1.34 4.79,-4.24 8.79,-8.72l0,8.11l-0.01,0zm-1.41,-71.84c0,11.29 -4.16,16.94 -12.49,16.94c-4.05,0 -7.5,-1.22 -10.37,-3.67c2.73,-4.14 4.85,-8.8 6.35,-13.97c3.72,2.31 6.7,3.46 8.96,3.46c2.54,-0.01 5.06,-0.92 7.55,-2.76z" id="svg_10"/>
    <linearGradient gradientUnits="userSpaceOnUse" id="SVGID_8_" x1="1607.16" x2="1671.23" y1="1333.45" y2="1333.45">
     <stop offset="0" stop-color="#C6972F"/>
     <stop offset="0.12" stop-color="#B37E10"/>
     <stop offset="0.26" stop-color="#F8DD7B"/>
     <stop offset="0.37" stop-color="#F8DD7B"/>
     <stop offset="0.38" stop-color="#F6DA78"/>
     <stop offset="0.5" stop-color="#DEB953"/>
     <stop offset="0.62" stop-color="#CB9F36"/>
     <stop offset="0.74" stop-color="#BE8D21"/>
     <stop offset="0.86" stop-color="#B68214"/>
     <stop offset="0.97" stop-color="#B37E10"/>
    </linearGradient>
    <path class="st7" d="m1671.23,1347.04c-2.4,2.12 -4.73,3.61 -6.99,4.48c-2.26,0.87 -4.05,1.31 -5.36,1.31c-3.39,0 -6.75,-1.32 -10.09,-3.95c-6.77,10.26 -14.54,15.38 -23.29,15.38c-5.46,0 -9.88,-2.05 -13.27,-6.14c-3.39,-4.09 -5.08,-9.53 -5.08,-16.3c0,-10.73 3.81,-19.93 11.43,-27.63c7.62,-7.69 16.72,-11.54 27.31,-11.54c4,0 6.93,0.43 8.79,1.31c1.86,0.87 3,1.89 3.42,3.07c0.42,1.18 0.63,2.66 0.63,4.44c0,8.8 -2.4,19.59 -7.2,32.39c2.4,2.21 4.92,3.32 7.55,3.32c3.15,0 7.2,-2.75 12.14,-8.26l0,8.12l0.01,0zm-23.29,-39.45c-0.71,-0.28 -1.72,-0.42 -3.03,-0.42c-6.12,0 -10.9,3.2 -14.36,9.6c-3.46,6.4 -5.19,13.88 -5.19,22.44c0,4.75 0.75,8.45 2.26,11.08c1.51,2.63 3.6,3.95 6.28,3.95c3.34,0 6.96,-3.08 10.87,-9.24c-4.42,-5.55 -6.63,-11.53 -6.63,-17.92c0,-7.54 3.27,-14.03 9.8,-19.49z" id="svg_11"/>
    <linearGradient gradientUnits="userSpaceOnUse" id="SVGID_9_" x1="1670.45" x2="1740.46" y1="1333.45" y2="1333.45">
     <stop offset="0" stop-color="#C6972F"/>
     <stop offset="0.12" stop-color="#B37E10"/>
     <stop offset="0.26" stop-color="#F8DD7B"/>
     <stop offset="0.37" stop-color="#F8DD7B"/>
     <stop offset="0.38" stop-color="#F6DA78"/>
     <stop offset="0.5" stop-color="#DEB953"/>
     <stop offset="0.62" stop-color="#CB9F36"/>
     <stop offset="0.74" stop-color="#BE8D21"/>
     <stop offset="0.86" stop-color="#B68214"/>
     <stop offset="0.97" stop-color="#B37E10"/>
    </linearGradient>
    <path class="st8" d="m1740.46,1347.04c-10.87,11.48 -20.18,17.22 -27.94,17.22c-3.15,0 -5.69,-1.11 -7.62,-3.32c-1.93,-2.21 -2.89,-5.17 -2.89,-8.89c0,-5.03 2.07,-12.72 6.21,-23.07c2.21,-5.55 3.32,-9.08 3.32,-10.58c0,-1.51 -0.59,-2.26 -1.76,-2.26c-0.66,0 -1.53,0.33 -2.61,0.99c-0.99,0.66 -2.14,1.58 -3.46,2.75c-1.18,1.08 -2.49,2.4 -3.95,3.95c-1.27,1.32 -2.64,2.82 -4.09,4.52l-3.95,4.59c-1.74,2.12 -2.82,4.35 -3.25,6.7c-0.71,4 -1.18,7.67 -1.41,11.01c-0.14,2.49 -0.21,5.86 -0.21,10.09l-15.6,3.67c-0.52,-6.35 -0.78,-11.08 -0.78,-14.18c0,-7.57 0.88,-14.75 2.65,-21.52s4.6,-14.4 8.5,-22.86l17.22,-3.32c-3.62,9.74 -6,17.41 -7.13,23c7.71,-8.61 13.83,-14.57 18.36,-17.89c4.53,-3.32 8.56,-4.97 12.08,-4.97c2.4,0 4.39,0.91 5.99,2.71c1.6,1.81 2.4,4.08 2.4,6.8c0,4.51 -2.02,11.94 -6.07,22.29c-2.77,7.1 -4.16,11.72 -4.16,13.84c0,2.83 1.16,4.25 3.47,4.25c3.44,0 9.01,-4.54 16.7,-13.62l0,8.1l-0.02,0z" id="svg_12"/>
    <linearGradient gradientUnits="userSpaceOnUse" id="SVGID_10_" x1="1738.83" x2="1785.34" y1="1333.6" y2="1333.6">
     <stop offset="0" stop-color="#C6972F"/>
     <stop offset="0.12" stop-color="#B37E10"/>
     <stop offset="0.26" stop-color="#F8DD7B"/>
     <stop offset="0.37" stop-color="#F8DD7B"/>
     <stop offset="0.38" stop-color="#F6DA78"/>
     <stop offset="0.5" stop-color="#DEB953"/>
     <stop offset="0.62" stop-color="#CB9F36"/>
     <stop offset="0.74" stop-color="#BE8D21"/>
     <stop offset="0.86" stop-color="#B68214"/>
     <stop offset="0.97" stop-color="#B37E10"/>
    </linearGradient>
    <path class="st9" d="m1762.12,1305.69c3.25,-0.85 6.52,-1.54 9.81,-2.08c3.29,-0.54 5.27,-0.81 5.93,-0.81c0.47,0 0.71,0.19 0.71,0.56c0,0.71 -0.19,1.43 -0.56,2.19c-0.75,2.16 -1.13,4.23 -1.13,6.21c0.01,2.45 1.42,5.79 4.24,10.02c2.82,4.24 4.23,8.17 4.23,11.79c0,7.2 -3.45,14.14 -10.34,20.82c-6.89,6.68 -14.03,10.02 -21.42,10.02c-3.2,0 -6.12,-0.85 -8.75,-2.54c-2.64,-1.69 -3.95,-3.5 -3.95,-5.43c0,-1.13 1.31,-3.27 3.92,-6.42c2.61,-3.15 4.48,-4.73 5.61,-4.73c1.51,0 2.85,1.93 4.02,5.79c1.17,3.86 3.2,5.79 6.07,5.79c2.87,0 5.56,-1.33 8.08,-3.99c2.52,-2.66 3.78,-5.52 3.78,-8.58c0,-2.96 -1.6,-6.92 -4.8,-11.85c-3.2,-4.94 -5.32,-9.08 -6.35,-12.42c-5.46,8.8 -12.37,17.81 -20.75,27.03l-1.62,0l0,-6.35c11.51,-12.3 19.27,-23.97 23.27,-35.02z" id="svg_13"/>
   </g>
   <g id="svg_14">
    <linearGradient gradientUnits="userSpaceOnUse" id="SVGID_11_" x1="1028.02" x2="1159.6" y1="1073.84" y2="1073.84">
     <stop offset="0" stop-color="#C6972F"/>
     <stop offset="0.12" stop-color="#B37E10"/>
     <stop offset="0.26" stop-color="#F8DD7B"/>
     <stop offset="0.37" stop-color="#F8DD7B"/>
     <stop offset="0.38" stop-color="#F6DA78"/>
     <stop offset="0.5" stop-color="#DEB953"/>
     <stop offset="0.62" stop-color="#CB9F36"/>
     <stop offset="0.74" stop-color="#BE8D21"/>
     <stop offset="0.86" stop-color="#B68214"/>
     <stop offset="0.97" stop-color="#B37E10"/>
    </linearGradient>
    <path class="st10" d="m1028.02,951.19l0,-9.43l131.58,0l0,9.43l-1.49,1.49c-3.97,4.96 -5.96,10.67 -5.96,17.13c0,6.45 2.15,12.16 6.46,17.13c0,2.98 -1.66,6.29 -4.97,9.93c-1.66,2.32 -3.4,4.55 -5.21,6.7c-1.82,2.16 -3.89,4.55 -6.21,7.2c-4.96,4.96 -10.1,9.77 -15.39,14.4c-5.3,4.64 -10.76,9.11 -16.39,13.41l0,-8.94c0.33,-0.66 1.32,-2.73 2.98,-6.21c1.65,-3.47 2.65,-5.54 2.98,-6.21c0.99,-2.31 1.82,-4.38 2.48,-6.21c0.66,-1.82 1.16,-3.55 1.49,-5.21l0,-17.88c-0.67,-5.96 -2.32,-10.84 -4.97,-14.65c-2.65,-3.8 -7.12,-6.04 -13.41,-6.7l-13.41,0c-3.97,0.99 -7.45,2.98 -10.43,5.96c-3.65,4.31 -5.46,10.1 -5.46,17.38l0,69.02l41.71,0c0.66,0 1.99,-0.33 3.97,-0.99c0.99,-0.66 1.82,-1.16 2.48,-1.49c0.66,-0.32 1.32,-0.82 1.99,-1.49c1.65,-0.99 2.98,-2.06 3.97,-3.23c0.99,-1.16 1.49,-2.73 1.49,-4.72l6.45,0l0,53.63l-6.45,0c0,-1.65 -0.5,-3.14 -1.49,-4.47c-0.99,-1.65 -2.23,-2.98 -3.72,-3.97c-1.49,-0.99 -3.06,-1.82 -4.72,-2.48c-1.99,-0.66 -3.31,-0.99 -3.97,-0.99l-41.71,0l0,92.36l28.3,0c5.96,0 10.59,-1.99 13.9,-5.96c3.64,-3.64 5.46,-9.43 5.46,-17.38l0,-28.8l39.23,0l0,8.94c-2.98,2.32 -5.14,5.21 -6.45,8.69c-1.33,3.48 -2.32,7.04 -2.98,10.68c-0.67,3.97 -0.83,8.11 -0.5,12.41c0.33,6.29 1.74,12.17 4.22,17.63c2.48,5.46 4.38,8.53 5.71,9.19l0,9.43l-131.58,0l0,-9.43c3.97,-2.31 6.62,-6.37 7.94,-12.16c1.32,-5.79 1.99,-10.68 1.99,-14.65l0,-76.47c0,-0.99 -0.09,-1.9 -0.25,-2.73c-0.17,-0.82 -0.42,-1.9 -0.74,-3.23l-6.95,-13.9c0.66,-1.32 1.82,-3.55 3.48,-6.7c1.65,-3.14 2.81,-5.38 3.48,-6.7c0.33,-0.99 0.57,-1.9 0.74,-2.73c0.16,-0.82 0.25,-1.74 0.25,-2.73l0,-76.49c0,-3.97 -0.67,-8.85 -1.99,-14.65c-1.31,-5.78 -3.96,-9.84 -7.93,-12.16z" id="svg_15"/>
    <linearGradient gradientUnits="userSpaceOnUse" id="SVGID_12_" x1="1184.92" x2="1362.19" y1="1073.84" y2="1073.84">
     <stop offset="0" stop-color="#C6972F"/>
     <stop offset="0.12" stop-color="#B37E10"/>
     <stop offset="0.26" stop-color="#F8DD7B"/>
     <stop offset="0.37" stop-color="#F8DD7B"/>
     <stop offset="0.38" stop-color="#F6DA78"/>
     <stop offset="0.5" stop-color="#DEB953"/>
     <stop offset="0.62" stop-color="#CB9F36"/>
     <stop offset="0.74" stop-color="#BE8D21"/>
     <stop offset="0.86" stop-color="#B68214"/>
     <stop offset="0.97" stop-color="#B37E10"/>
    </linearGradient>
    <path class="st11" d="m1184.92,951.19l0,-9.43l44.19,0l43.7,160.38l45.68,-160.38l43.7,0l0,9.43c-1.99,0.99 -3.65,2.65 -4.97,4.96c-1.33,2.32 -2.32,4.8 -2.98,7.45c-0.67,2.65 -1.16,5.3 -1.49,7.94c-0.33,2.65 -0.5,4.97 -0.5,6.95l0,75.97c0,2.32 0.33,4.14 0.99,5.46c0.66,1.33 1.82,3.56 3.48,6.7c1.65,3.15 2.81,5.38 3.48,6.7c-0.67,0.99 -1.82,3.15 -3.48,6.46c-1.66,3.31 -2.82,5.63 -3.48,6.95c-0.67,1.33 -0.99,3.15 -0.99,5.46l0,77.46c0,1.99 0.16,4.31 0.5,6.95c0.33,2.65 0.82,5.3 1.49,7.94c0.66,2.65 1.65,5.05 2.98,7.2c1.32,2.16 2.98,3.72 4.97,4.72l0,9.43l-54.62,0l0,-9.43c1.99,-1.32 4.3,-4.47 6.95,-9.43c1.99,-4.96 2.98,-10.75 2.98,-17.38l0,-135.56l-46.67,171.8l-10.43,0l-46.67,-171.8l0,135.56c0,6.63 0.99,12.41 2.98,17.38c2.65,4.97 4.97,8.12 6.95,9.43l0,9.43l-38.73,0l0,-9.43c2.65,-1.65 4.97,-4.79 6.95,-9.43c2.31,-4.63 3.47,-10.43 3.47,-17.38l0,-77.46c0,-1.65 -0.5,-3.48 -1.49,-5.46c-0.67,-1.32 -1.82,-3.64 -3.48,-6.95c-1.66,-3.31 -2.82,-5.46 -3.48,-6.46c0.66,-1.32 1.82,-3.55 3.48,-6.7c1.65,-3.14 2.81,-5.38 3.48,-6.7c0.99,-1.99 1.49,-3.8 1.49,-5.46l0,-75.96c0,-7.28 -1.16,-13.24 -3.47,-17.88c-1.99,-4.63 -4.31,-7.77 -6.96,-9.43z" id="svg_16"/>
    <linearGradient gradientUnits="userSpaceOnUse" id="SVGID_13_" x1="1382.04" x2="1519.59" y1="1073.84" y2="1073.84">
     <stop offset="0" stop-color="#C6972F"/>
     <stop offset="0.12" stop-color="#B37E10"/>
     <stop offset="0.26" stop-color="#F8DD7B"/>
     <stop offset="0.37" stop-color="#F8DD7B"/>
     <stop offset="0.38" stop-color="#F6DA78"/>
     <stop offset="0.5" stop-color="#DEB953"/>
     <stop offset="0.62" stop-color="#CB9F36"/>
     <stop offset="0.74" stop-color="#BE8D21"/>
     <stop offset="0.86" stop-color="#B68214"/>
     <stop offset="0.97" stop-color="#B37E10"/>
    </linearGradient>
    <path class="st12" d="m1382.04,951.19l0,-9.43l94.34,0c5.62,0 10.75,1.16 15.39,3.48c2.31,0.67 4.3,1.66 5.96,2.98c1.65,1.33 3.3,2.82 4.97,4.47c0.32,0.33 1.4,1.49 3.23,3.47c1.82,1.99 3.72,4.22 5.71,6.7s4.63,5.71 7.94,9.68c-1.66,2.32 -3.31,4.97 -4.96,7.94c-1.66,2.65 -2.9,5.88 -3.72,9.68c-0.83,3.81 -1.24,7.37 -1.24,10.68l0,26.32c0,5.3 -1.33,10.6 -3.97,15.89c-0.67,0.67 -1.33,1.66 -1.99,2.98c-2.65,3.97 -5.88,7.28 -9.68,9.93c-3.81,2.65 -7.04,4.64 -9.68,5.96c-0.67,0.67 -2.9,1.91 -6.7,3.72c-3.81,1.82 -6.54,3.06 -8.19,3.72c-4.96,2.65 -9.27,5.63 -12.91,8.94c-5.3,3.97 -9.77,7.78 -13.41,11.42c-3.65,3.65 -6.79,6.95 -9.43,9.93c-2.98,3.31 -5.3,6.45 -6.95,9.43l0,60.58c0,1.99 0.08,3.89 0.25,5.71c0.16,1.82 0.41,3.56 0.75,5.21c0.33,1.33 0.66,2.48 0.99,3.48c0.33,0.99 0.66,1.99 0.99,2.98c1.99,4.64 4.3,7.78 6.95,9.43l0,9.43l-54.62,0l0,-9.43c2.98,-1.32 5.46,-4.63 7.45,-9.93c1.65,-5.62 2.48,-11.25 2.48,-16.88l0,-77.46c0,-0.99 -0.33,-2.48 -0.99,-4.47c0,-0.66 -0.42,-1.65 -1.24,-2.98c-0.83,-1.32 -1.57,-2.81 -2.23,-4.47c-0.67,-1.65 -1.41,-3.14 -2.23,-4.47c-0.83,-1.32 -1.24,-2.15 -1.24,-2.48c0,-0.33 0.41,-1.16 1.24,-2.48c0.82,-1.32 1.57,-2.81 2.23,-4.47c0.66,-1.65 1.4,-3.23 2.23,-4.72c0.82,-1.49 1.24,-2.4 1.24,-2.73c0.66,-1.99 0.99,-3.48 0.99,-4.47l0,-75.96c0,-4.3 -0.67,-9.26 -1.99,-14.9c-1.34,-5.62 -3.98,-9.76 -7.96,-12.41zm53.63,108.74c4.63,-3.64 9.6,-6.95 14.9,-9.93l0.5,0c4.3,-2.31 8.11,-5.13 11.42,-8.44c2.64,-2.98 5.21,-6.7 7.7,-11.17c2.48,-4.47 3.89,-9.85 4.22,-16.14l0,-26.81l0,-0.5c-0.67,-5.62 -2.48,-10.43 -5.46,-14.4c-2.98,-3.97 -7.62,-5.96 -13.9,-5.96l-28.3,0l0,100.8c0.99,-0.66 2.56,-1.99 4.72,-3.97c2.13,-1.99 3.53,-3.14 4.2,-3.48z" id="svg_17"/>
    <linearGradient gradientUnits="userSpaceOnUse" id="SVGID_14_" x1="1530.01" x2="1584.63" y1="1073.84" y2="1073.84">
     <stop offset="0" stop-color="#C6972F"/>
     <stop offset="0.12" stop-color="#B37E10"/>
     <stop offset="0.26" stop-color="#F8DD7B"/>
     <stop offset="0.37" stop-color="#F8DD7B"/>
     <stop offset="0.38" stop-color="#F6DA78"/>
     <stop offset="0.5" stop-color="#DEB953"/>
     <stop offset="0.62" stop-color="#CB9F36"/>
     <stop offset="0.74" stop-color="#BE8D21"/>
     <stop offset="0.86" stop-color="#B68214"/>
     <stop offset="0.97" stop-color="#B37E10"/>
    </linearGradient>
    <path class="st13" d="m1536.96,1187.05c1.99,-4.96 2.98,-10.75 2.98,-17.38l0,-77.46c0,-0.99 -0.33,-2.81 -0.99,-5.46c-0.67,-1.32 -1.91,-3.64 -3.72,-6.95c-1.82,-3.31 -3.07,-5.46 -3.72,-6.46c0.66,-1.32 1.9,-3.55 3.72,-6.7c1.81,-3.14 3.06,-5.38 3.72,-6.7c0.33,-0.99 0.57,-1.9 0.74,-2.73c0.16,-0.82 0.25,-1.74 0.25,-2.73l0,-75.98c0,-6.95 -0.99,-12.91 -2.98,-17.88c-2.65,-4.97 -4.97,-8.11 -6.95,-9.43l0,-9.43l54.62,0l0,9.43c-3.97,2.65 -6.62,6.79 -7.94,12.41c-1.33,5.63 -1.99,10.6 -1.99,14.9l0,75.97c0,1.66 0.5,3.48 1.49,5.46c0.33,1.33 1.32,3.56 2.98,6.7c1.65,3.15 2.98,5.38 3.97,6.7c-0.99,0.99 -2.32,3.15 -3.97,6.46c-1.66,3.31 -2.65,5.63 -2.98,6.95c-0.99,1.99 -1.49,3.81 -1.49,5.46l0,77.46c0,3.97 0.66,8.86 1.99,14.65c1.32,5.79 3.97,9.85 7.94,12.16l0,9.43l-54.62,0l0,-9.43c1.98,-1.31 4.3,-4.46 6.95,-9.42z" id="svg_18"/>
    <linearGradient gradientUnits="userSpaceOnUse" id="SVGID_15_" x1="1604.98" x2="1743.52" y1="1114.8" y2="1114.8">
     <stop offset="0" stop-color="#C6972F"/>
     <stop offset="0.12" stop-color="#B37E10"/>
     <stop offset="0.26" stop-color="#F8DD7B"/>
     <stop offset="0.37" stop-color="#F8DD7B"/>
     <stop offset="0.38" stop-color="#F6DA78"/>
     <stop offset="0.5" stop-color="#DEB953"/>
     <stop offset="0.62" stop-color="#CB9F36"/>
     <stop offset="0.74" stop-color="#BE8D21"/>
     <stop offset="0.86" stop-color="#B68214"/>
     <stop offset="0.97" stop-color="#B37E10"/>
    </linearGradient>
    <path class="st14" d="m1604.98,951.19l0,-9.43l94.34,0c5.96,0 11.09,1.16 15.39,3.48c2.31,0.67 4.3,1.66 5.96,2.98c1.65,1.33 3.3,2.82 4.97,4.47c0.32,0.33 1.4,1.49 3.23,3.47c1.82,1.99 3.72,4.14 5.71,6.46c2.31,2.98 4.97,6.13 7.94,9.43l0,0.5c-1.66,2.32 -3.31,4.97 -4.96,7.94c-1.66,2.65 -2.9,5.88 -3.72,9.68c-0.83,3.81 -1.24,7.37 -1.24,10.68l0,26.32c0,5.3 -1.33,10.6 -3.97,15.89c-0.67,0.67 -1.33,1.66 -1.99,2.98c-2.65,3.97 -5.88,7.28 -9.68,9.93c-3.81,2.65 -7.04,4.64 -9.68,5.96c-0.67,0.67 -1.41,1.08 -2.23,1.24c-0.83,0.17 -1.58,0.58 -2.23,1.24c2.98,1.33 6.21,3.23 9.68,5.71c3.48,2.48 6.7,5.63 9.68,9.43c2.98,3.81 5.46,8.36 7.45,13.66c1.99,5.3 2.98,11.59 2.98,18.87l0,130.1c0,1.65 0.08,3.3 0.25,4.96c0.16,1.65 0.41,3.31 0.75,4.97l0,2.98c0.66,3.64 1.81,7.45 3.47,11.42c0.33,0.66 1.24,2.4 2.73,5.21c1.49,2.81 2.4,4.55 2.73,5.21c0.33,0.33 0.5,0.57 0.5,0.74c0,0.16 0.16,0.41 0.5,0.75l0,9.43l-11.92,-8.94l0,-0.5c-1.33,-0.67 -2.98,-1.99 -4.97,-3.97c-5.3,-3.97 -10.26,-8.12 -14.9,-12.41c-4.64,-4.31 -9.27,-8.77 -13.9,-13.41l0,-131.58c0,-9.26 -3.15,-17.54 -9.43,-24.83c-2.98,-3.97 -7.28,-7.61 -12.91,-10.92c-4.64,3.65 -8.53,7.12 -11.67,10.43c-3.15,3.31 -5.88,6.29 -8.19,8.94c-2.32,2.98 -4.31,5.8 -5.96,8.44l0,60.58c0,1.99 0.08,3.97 0.25,5.96c0.16,1.99 0.41,3.81 0.75,5.46c0.33,0.99 0.66,1.99 0.99,2.98c0.33,0.99 0.66,1.99 0.99,2.98c1.99,4.64 4.3,7.78 6.95,9.43l0,9.43l-54.62,0l0,-9.43c2.98,-1.32 5.46,-4.63 7.45,-9.93c1.65,-5.62 2.48,-11.25 2.48,-16.88l0,-77.46c0,-0.99 -0.33,-2.48 -0.99,-4.47c0,-0.66 -0.42,-1.65 -1.24,-2.98c-0.83,-1.32 -1.57,-2.81 -2.23,-4.47c-0.67,-1.65 -1.41,-3.14 -2.23,-4.47c-0.83,-1.32 -1.24,-2.15 -1.24,-2.48c0,-0.33 0.41,-1.16 1.24,-2.48c0.82,-1.32 1.57,-2.81 2.23,-4.47c0.66,-1.65 1.4,-3.23 2.23,-4.72c0.82,-1.49 1.24,-2.4 1.24,-2.73c0.66,-1.99 0.99,-3.48 0.99,-4.47l0,-75.98c0,-4.3 -0.67,-9.26 -1.99,-14.9c-1.34,-5.62 -3.99,-9.76 -7.96,-12.41zm44.69,116.19c0.99,-0.66 1.9,-1.49 2.73,-2.48c0.82,-0.99 1.74,-1.82 2.73,-2.48c1.99,-1.32 3.14,-2.15 3.48,-2.48c2.65,-1.99 5.04,-3.64 7.2,-4.96c2.15,-1.32 4.55,-2.81 7.2,-4.47c6.95,-3.64 12.66,-8.69 17.13,-15.14c4.47,-6.46 6.87,-13.48 7.2,-21.1l0,-24.33l0,-0.99l0,-1.49c-0.67,-5.63 -2.48,-10.51 -5.46,-14.65c-2.98,-4.13 -7.62,-6.21 -13.9,-6.21l-28.3,0l0,100.78l-0.01,0z" id="svg_19"/>
    <linearGradient gradientUnits="userSpaceOnUse" id="SVGID_16_" x1="1758.41" x2="1889.99" y1="1073.84" y2="1073.84">
     <stop offset="0" stop-color="#C6972F"/>
     <stop offset="0.12" stop-color="#B37E10"/>
     <stop offset="0.26" stop-color="#F8DD7B"/>
     <stop offset="0.37" stop-color="#F8DD7B"/>
     <stop offset="0.38" stop-color="#F6DA78"/>
     <stop offset="0.5" stop-color="#DEB953"/>
     <stop offset="0.62" stop-color="#CB9F36"/>
     <stop offset="0.74" stop-color="#BE8D21"/>
     <stop offset="0.86" stop-color="#B68214"/>
     <stop offset="0.97" stop-color="#B37E10"/>
    </linearGradient>
    <path class="st15" d="m1758.41,951.19l0,-9.43l131.58,0l0,9.43l-1.49,1.49c-3.97,4.96 -5.96,10.67 -5.96,17.13c0,6.45 2.15,12.16 6.46,17.13c0,2.98 -1.66,6.29 -4.97,9.93c-1.66,2.32 -3.4,4.55 -5.21,6.7c-1.82,2.16 -3.89,4.55 -6.21,7.2c-4.96,4.96 -10.1,9.77 -15.39,14.4c-5.3,4.64 -10.76,9.11 -16.39,13.41l0,-8.94c0.33,-0.66 1.32,-2.73 2.98,-6.21c1.65,-3.47 2.65,-5.54 2.98,-6.21c0.99,-2.31 1.82,-4.38 2.48,-6.21c0.66,-1.82 1.16,-3.55 1.49,-5.21l0,-17.88c-0.67,-5.96 -2.32,-10.84 -4.97,-14.65c-2.65,-3.8 -7.12,-6.04 -13.41,-6.7l-13.41,0c-3.97,0.99 -7.45,2.98 -10.43,5.96c-3.65,4.31 -5.46,10.1 -5.46,17.38l0,69.02l41.71,0c0.66,0 1.99,-0.33 3.97,-0.99c0.99,-0.66 1.82,-1.16 2.48,-1.49c0.66,-0.32 1.32,-0.82 1.99,-1.49c1.65,-0.99 2.98,-2.06 3.97,-3.23c0.99,-1.16 1.49,-2.73 1.49,-4.72l6.45,0l0,53.63l-6.45,0c0,-1.65 -0.5,-3.14 -1.49,-4.47c-0.99,-1.65 -2.23,-2.98 -3.72,-3.97c-1.49,-0.99 -3.06,-1.82 -4.72,-2.48c-1.99,-0.66 -3.31,-0.99 -3.97,-0.99l-41.71,0l0,92.36l28.3,0c5.96,0 10.59,-1.99 13.9,-5.96c3.64,-3.64 5.46,-9.43 5.46,-17.38l0,-28.8l39.23,0l0,8.94c-2.98,2.32 -5.14,5.21 -6.45,8.69c-1.33,3.48 -2.32,7.04 -2.98,10.68c-0.67,3.97 -0.83,8.11 -0.5,12.41c0.33,6.29 1.74,12.17 4.22,17.63c2.48,5.46 4.38,8.53 5.71,9.19l0,9.43l-131.58,0l0,-9.43c3.97,-2.31 6.62,-6.37 7.94,-12.16c1.32,-5.79 1.99,-10.68 1.99,-14.65l0,-76.47c0,-0.99 -0.09,-1.9 -0.25,-2.73c-0.17,-0.82 -0.42,-1.9 -0.74,-3.23l-6.95,-13.9c0.66,-1.32 1.82,-3.55 3.48,-6.7c1.65,-3.14 2.81,-5.38 3.48,-6.7c0.33,-0.99 0.57,-1.9 0.74,-2.73c0.16,-0.82 0.25,-1.74 0.25,-2.73l0,-76.49c0,-3.97 -0.67,-8.85 -1.99,-14.65c-1.31,-5.78 -3.96,-9.84 -7.93,-12.16z" id="svg_20"/>
   </g>
   <linearGradient gradientUnits="userSpaceOnUse" id="SVGID_17_" x1="1296.75" x2="1621.55" y1="736.43" y2="736.43">
    <stop offset="0" stop-color="#C6972F"/>
    <stop offset="0.12" stop-color="#B37E10"/>
    <stop offset="0.26" stop-color="#F8DD7B"/>
    <stop offset="0.37" stop-color="#F8DD7B"/>
    <stop offset="0.38" stop-color="#F6DA78"/>
    <stop offset="0.5" stop-color="#DEB953"/>
    <stop offset="0.62" stop-color="#CB9F36"/>
    <stop offset="0.74" stop-color="#BE8D21"/>
    <stop offset="0.86" stop-color="#B68214"/>
    <stop offset="0.97" stop-color="#B37E10"/>
   </linearGradient>
   <path class="st16" d="m1621.55,760.32c-44.97,-13.05 -101.3,-20.81 -162.55,-20.81c-61.07,0 -117.33,7.72 -162.25,20.76l0,-27.06c44.93,-12.96 101.22,-20.68 162.25,-20.68c61.12,0 117.45,7.72 162.38,20.72l0.17,27.07z" id="svg_21"/>
   <linearGradient gradientUnits="userSpaceOnUse" id="SVGID_18_" x1="1249.38" x2="1592.84" y1="830.7" y2="830.7">
    <stop offset="0" stop-color="#C6972F"/>
    <stop offset="0.12" stop-color="#B37E10"/>
    <stop offset="0.26" stop-color="#F8DD7B"/>
    <stop offset="0.37" stop-color="#F8DD7B"/>
    <stop offset="0.38" stop-color="#F6DA78"/>
    <stop offset="0.5" stop-color="#DEB953"/>
    <stop offset="0.62" stop-color="#CB9F36"/>
    <stop offset="0.74" stop-color="#BE8D21"/>
    <stop offset="0.86" stop-color="#B68214"/>
    <stop offset="0.97" stop-color="#B37E10"/>
   </linearGradient>
   <path class="st17" d="m1588.86,837.57c-7.14,-25.27 -20.06,-44.96 -38.75,-59.06c-18.69,-14.1 -37.37,-18.51 -56.05,-13.23c-17.54,4.96 -29.22,16.12 -35.06,33.49c-5.84,-17.37 -17.52,-28.53 -35.06,-33.49c-18.68,-5.28 -37.36,-0.87 -56.05,13.23c-18.69,14.1 -31.6,33.79 -38.75,59.06c-5.14,18.19 -5.3,32.39 -0.47,42.59c4.83,10.2 10.17,16.13 16.04,17.79c3.66,1.04 10.2,-0.41 19.62,-4.34c9.42,-3.93 14.52,-7.3 15.32,-10.11c0.93,-3.3 -3.03,-6.99 -11.9,-11.08c-19.79,-9.29 -27.8,-20.59 -24.04,-33.89c2.93,-10.38 11.39,-18.14 25.37,-23.29c13.98,-5.15 28.29,-5.65 42.95,-1.51c23.44,6.63 31.92,21.41 25.43,44.37c-1.07,3.78 -1.58,6.41 -1.53,7.87c0.05,1.46 0.93,2.44 2.64,2.92c4.64,1.31 10,1.84 16.07,1.58c1.66,-0.07 7.09,-0.07 8.75,0c6.07,0.26 11.43,-0.26 16.07,-1.58c1.71,-0.48 2.59,-1.46 2.64,-2.92c0.05,-1.47 -0.46,-4.09 -1.53,-7.87c-6.49,-22.96 1.99,-37.74 25.43,-44.37c14.65,-4.14 28.96,-3.64 42.95,1.51c13.98,5.15 22.44,12.91 25.37,23.29c3.76,13.3 -4.25,24.6 -24.04,33.89c-8.87,4.09 -12.83,7.78 -11.9,11.08c0.79,2.81 5.9,6.18 15.32,10.11c9.42,3.93 15.96,5.38 19.62,4.34c5.86,-1.66 11.2,-7.59 16.04,-17.79c4.8,-10.2 4.64,-24.4 -0.5,-42.59z" id="svg_22"/>
   <linearGradient gradientUnits="userSpaceOnUse" id="SVGID_19_" x1="1221.41" x2="1696.59" y1="627.61" y2="627.61">
    <stop offset="0" stop-color="#C6972F"/>
    <stop offset="0.12" stop-color="#B37E10"/>
    <stop offset="0.26" stop-color="#F8DD7B"/>
    <stop offset="0.37" stop-color="#F8DD7B"/>
    <stop offset="0.38" stop-color="#F6DA78"/>
    <stop offset="0.5" stop-color="#DEB953"/>
    <stop offset="0.62" stop-color="#CB9F36"/>
    <stop offset="0.74" stop-color="#BE8D21"/>
    <stop offset="0.86" stop-color="#B68214"/>
    <stop offset="0.97" stop-color="#B37E10"/>
   </linearGradient>
   <path class="st18" d="m1592.84,644.52c-0.25,0 -57.44,-12.01 -111.22,-2.07c0,0 37.34,-68.78 -22.61,-106.1c-60.14,48.56 -22.61,106.1 -22.61,106.1c-53.78,-9.94 -110.97,9.85 -111.22,9.85c-12.04,-130.62 -103.76,-99.32 -103.76,-99.32c54.7,42.95 72.4,146.44 75.34,165.9c44.93,-12.96 101.22,-20.68 162.25,-20.68c61.03,0 117.33,7.72 162.25,20.68c2.94,-19.46 20.64,-122.95 75.34,-165.9c-0.01,0 -91.73,-39.08 -103.76,91.54zm-206.25,47.18l-12.52,-9.09l-12.52,9.09l4.78,-14.71l-12.52,-9.09l15.47,0l4.78,-14.71l4.78,14.71l15.47,0l-12.52,9.09l4.8,14.71zm82.65,-28.3l-10.09,-7.33l-10.09,7.33l3.86,-11.87l-10.09,-7.33l12.48,0l3.86,-11.87l3.86,11.87l12.48,0l-10.09,7.33l3.82,11.87zm87.2,28.3l-12.52,-9.09l-12.52,9.09l4.78,-14.71l-12.52,-9.09l15.47,0l4.78,-14.71l4.78,14.71l15.47,0l-12.52,9.09l4.8,14.71z" id="svg_23"/>
  </g>
 </g>
</svg>