<svg  viewBox="0 0 42 42" fill="none" xmlns="http://www.w3.org/2000/svg">
<path d="M5 0C2.24 0 0 2.24 0 5V37C0 39.76 2.24 42 5 42H37C39.76 42 42 39.76 42 37V5C42 2.24 39.76 0 37 0H5ZM11 4H13.4004L15 8L16.5996 4H19L16 11V15H14V10.9902C13.4 9.38023 11.41 5.01 11 4ZM21 7C21.89 7 22.7701 7.26922 23.3301 7.94922C23.7601 8.43922 24 9.22953 24 10.2695V11.7305C24 12.7705 23.8009 13.4905 23.3809 13.9805C22.8209 14.6505 21.89 15 21 15C20.11 15 19.2006 14.6505 18.6406 13.9805C18.2106 13.4905 18 12.7705 18 11.7305V10.2793C18 9.2393 18.2299 8.43922 18.6699 7.94922C19.2299 7.26922 19.99 7 21 7ZM25 7H27V13C27.05 13.27 27.3394 13.3906 27.6094 13.3906C28.0194 13.3906 28.54 12.9109 29 12.3809V7H31V15H29V13.6191C28.19 14.4091 27.4998 15.0007 26.5898 14.9707C25.9298 14.9507 25.4702 14.7105 25.2402 14.2305C25.1002 13.9505 25 13.4998 25 12.8398V7ZM21 8.61914C20.8625 8.61914 20.7309 8.6493 20.6113 8.70117C20.4918 8.75305 20.3836 8.82742 20.293 8.91992C20.2023 9.01242 20.1289 9.12227 20.0781 9.24414C20.0273 9.36602 20 9.50062 20 9.64062V12.4492C20 12.7292 20.1117 12.9849 20.293 13.1699C20.3836 13.2624 20.4918 13.3368 20.6113 13.3887C20.7309 13.4405 20.8625 13.4707 21 13.4707C21.1375 13.4707 21.2691 13.4405 21.3887 13.3887C21.7473 13.233 22 12.8692 22 12.4492V9.64062C22 9.08062 21.55 8.61914 21 8.61914ZM20.9902 18H21.0098C21.0098 18 27.7192 18.0003 32.1992 18.3203C32.8292 18.3903 34.1902 18.4004 35.4102 19.6504C36.3702 20.5904 36.6797 22.75 36.6797 22.75C36.6797 22.75 37 24.2805 37 26.8105V29.1797C37 31.7097 36.6797 33.2402 36.6797 33.2402C36.6797 33.2402 36.3702 35.3998 35.4102 36.3398C34.1902 37.5898 32.8292 37.5999 32.1992 37.6699C27.7192 37.9899 21 38 21 38C21 38 12.6791 37.9197 10.1191 37.6797C9.40914 37.5497 7.80984 37.5896 6.58984 36.3496C5.62984 35.3996 5.32031 33.2402 5.32031 33.2402C5.32031 33.2402 5 31.7097 5 29.1797V26.8105C5 24.2805 5.32031 22.75 5.32031 22.75C5.32031 22.75 5.62984 20.5904 6.58984 19.6504C7.80984 18.4004 9.17078 18.3903 9.80078 18.3203C14.2808 18.0003 20.9902 18 20.9902 18ZM8 22V23.9785H10V34H12V23.9785H14V22H8ZM21 22V34H23V32.75C23.631 33.531 24.453 34 25.125 34C25.877 34 26.5332 33.5953 26.7852 32.8203C26.9042 32.4013 26.992 32.01 27 31.125V28.375C27 27.387 26.8662 26.6427 26.7402 26.2227C26.4882 25.4417 25.878 25.005 25.125 25C24.145 24.993 23.75 25.5 23 26.375V22H21ZM14 25V31.6855C14 32.4075 14.1005 32.892 14.2305 33.209C14.4505 33.723 14.8991 34 15.5391 34C16.2691 34 17.21 33.4858 18 32.6348V34H20V25H18V31.2695C17.56 31.8535 16.9195 32.2891 16.5195 32.2891C16.2595 32.2891 16.05 32.1796 16 31.8926V25H14ZM31.0293 25C30.0213 25 29.2341 25.317 28.6641 25.916C28.2441 26.358 28 27.0806 28 28.0176V31.084C28 32.015 28.2685 32.6665 28.6875 33.1035C29.2585 33.7025 30.0442 34 31.0762 34C32.1072 34 32.9188 33.6868 33.4648 33.0508C33.7048 32.7698 33.8588 32.4536 33.9258 32.1016C33.9438 31.9426 34 31.511 34 31H32V31.7988C32 32.2628 31.552 32.6387 31 32.6387C30.448 32.6387 30 32.2618 30 31.7988V30H34V29.4238V27.9785C34 27.0435 33.7704 26.359 33.3574 25.916C32.8044 25.317 32.0193 25 31.0293 25ZM31 26.4473C31.552 26.4473 32 26.8241 32 27.2871V28.6152H30V27.2871C30 26.8231 30.448 26.4473 31 26.4473ZM24.2207 26.7461C24.7657 26.7461 25 27.081 25 28.125V30.875C25 31.919 24.7657 32.2793 24.2207 32.2793C23.9097 32.2793 23.316 32.066 23 31.75V27.375C23.316 27.063 23.9097 26.7461 24.2207 26.7461Z" fill="#EB1717"/>
</svg>
